<svg width="120" height="121" viewBox="0 0 120 121" fill="none" xmlns="http://www.w3.org/2000/svg">
<path d="M63.8749 21.0303C17.4521 12.9627 1.49965 87.1943 47.5569 93.7747C60.4297 95.6137 73.715 98.1201 84.9483 89.6952C101.435 77.3293 100.538 61.2854 92.7666 43.8041C89.4958 36.4399 86.7595 30.7347 79.8495 26.129C74.0917 22.2905 69.3973 21.9886 63.8749 21.0303Z" stroke="#F583FF" stroke-width="3" stroke-miterlimit="10" stroke-linecap="round" stroke-linejoin="round"/>
<path d="M44.3274 47.2028C37.8357 46.9757 46.8283 55.8493 45.1777 49.2439C44.9312 48.2607 44.5628 47.2111 44.3274 47.2028Z" stroke="#F583FF" stroke-width="3" stroke-miterlimit="10" stroke-linecap="round" stroke-linejoin="round"/>
<path d="M73.9033 46.3546C71.6988 43.7208 68.8349 50.8025 70.6711 52.6414C73.701 55.6685 76.0746 48.9469 73.9033 46.3546Z" stroke="#F583FF" stroke-width="3" stroke-miterlimit="10" stroke-linecap="round" stroke-linejoin="round"/>
<path d="M43.7954 69.9019C43.7954 68.1599 56.7928 68.9243 58.8174 68.7969C60.1329 68.7166 75.2933 66.9635 75.3847 67.0299C75.8084 67.3484 72.8146 79.886 70.7457 81.6087C63.7831 87.4136 43.7954 78.5954 43.7954 69.9019Z" stroke="#F583FF" stroke-width="3" stroke-miterlimit="10" stroke-linecap="round" stroke-linejoin="round"/>
</svg>
